
<svg xmlns="http://www.w3.org/2000/svg" xml:space="preserve" width="297mm" height="210mm" version="1.1" style="shape-rendering:geometricPrecision; text-rendering:geometricPrecision; image-rendering:optimizeQuality; fill-rule:evenodd; clip-rule:evenodd"
viewBox="0 0 29700 21000"
 xmlns:xlink="http://www.w3.org/1999/xlink"
 xmlns:xodm="http://www.corel.com/coreldraw/odm/2003">
 <defs>
  <style type="text/css">
   <![CDATA[
    .fil0 {fill:#ECB900}
    .fil2 {fill:white;fill-rule:nonzero}
    .fil1 {fill:#ECB900;fill-rule:nonzero}
   ]]>
  </style>
 </defs>
 <g id="Layer_x0020_1">
  <metadata id="CorelCorpID_0Corel-Layer"/>
  <g id="_1945047510448">
   <g>
    <path class="fil0" d="M8796.21 10841.05c-110.52,-42.74 -63.43,-179.39 -77.11,-248.21 -13.72,-68.81 -82.42,-75.04 -83.45,-117.82 -1.03,-42.73 43.81,-52.11 40.66,-76.08 -3.09,-24.04 -59.43,-15.69 -87.57,-78.27 -28.14,-62.51 17.62,-106.32 17.62,-152.21 0,-45.88 -115.6,-81.35 -126.08,-162.69 -4.46,-34.7 42.05,-92.21 96.28,-159.59 72.81,-90.44 159.71,-198.56 156.11,-292.93 -1.78,-46.79 -6.23,-107.78 -11.74,-171.04 -18.06,-23.29 -31.35,-50.8 -38.04,-81.41 -10.35,-47.36 -3.31,-94.66 16.83,-135.22l0 -0.06c18.59,-37.23 39.01,-73.34 61.07,-108.36 -19.6,-24.29 -33.79,-53.3 -40.71,-85.04 -24.19,-110.51 46.49,-220.87 157.02,-245.12 31.06,-6.8 62.79,-6.17 92.89,1.15l12.46 -12.03c-16.28,-112.61 57.68,-221.42 170.56,-246.13 64.9,-14.25 131.43,2.18 181.95,41.35l7.65 -2.4c23.13,-73.1 83.93,-131.63 162.57,-148.85 101.42,-22.25 202.69,30.39 245.59,120.48 19.21,-0.92 38.54,-1.37 58,-1.37 81.56,0 161.32,7.88 238.48,22.94 54.1,-6.93 107.07,8.17 148.82,38.84 186.33,61.27 353.13,165.49 488.65,301.05l424.73 -424.72c-332.87,-332.88 -792.72,-538.75 -1300.68,-538.75 -1015.89,0 -1839.36,823.56 -1839.36,1839.42 0,971.66 753.41,1767.36 1707.91,1834.74 -35.08,-284.95 -150.97,-521.94 -259.67,-658.98 -64.63,-81.58 -126.74,-127.79 -167.81,-127.79 -24.25,0 -52.4,4.68 -82.84,11.78 -122.63,28.71 -282.18,97.59 -370.79,63.32z"/>
    <path class="fil0" d="M10768.06 10501.83c-106.1,129.64 -237.91,237.39 -387.71,315.44 24.82,232.34 198.7,401.21 336.8,500.52 17.11,-9.74 34.1,-19.8 50.91,-30.04 252.32,-154.57 464.46,-368.21 617.31,-621.67l0 -1281.75 -1126.6 0 0 617.32 509.29 0 0 500.18z"/>
    <path class="fil1" d="M9984.21 9629.33l-242.88 -142.21c-12.7,12.16 -28.79,21.15 -47.26,25.23 -46.91,10.23 -93.24,-14.6 -111.73,-56.99l-193.62 42.8c-3.93,35.92 -30.25,66.92 -67.5,75.11 -43.88,9.61 -87.27,-15.96 -100.79,-57.84l-127.05 -1.43c-7.2,28.32 -29.8,51.65 -60.29,58.34 -43.07,9.45 -85.62,-17.84 -95.07,-60.91 -6.01,-27.51 2.96,-54.85 21.45,-73.44l-39.8 -80.72c-4.13,1.49 -8.49,2.74 -12.88,3.71 -57.54,12.59 -114.41,-23.86 -127.01,-81.39 -12.56,-57.49 23.87,-114.35 81.36,-126.99 5.14,-1.09 10.29,-1.84 15.39,-2.18l17.68 -119.09c-37.54,-9.85 -68.37,-39.89 -77.22,-80.43 -12.6,-57.49 23.85,-114.36 81.34,-126.93 33.68,-7.39 67.15,2.06 91.64,22.64l105.6 -101.59c-6.07,-10.53 -10.6,-22.07 -13.34,-34.54 -14.24,-65.05 26.93,-129.34 91.97,-143.58 52.7,-11.51 104.81,13.26 130.31,57.64l127.58 -39.4c-5.22,-59.49 34.43,-115.03 94.31,-128.14 65.11,-14.24 129.34,26.94 143.58,91.99 2.48,11.09 3.27,22.18 2.64,33.01l306.04 74.29c14.41,-26.65 39.93,-47.11 71.85,-54.1 58.18,-12.75 115.6,24.08 128.36,82.2 9.6,43.76 -8.87,87.18 -43.42,111.37l36.77 139.25c39.25,5.98 72.59,35.44 81.63,76.57 11.69,53.32 -22.08,106 -75.39,117.67 -7.49,1.66 -14.93,2.4 -22.23,2.3l-59.86 178.06c17.92,13.67 31.31,33.59 36.5,57.32 9.95,45.42 -13.03,90.33 -52.97,109.88l9.91 85.01c40.66,4.81 75.68,34.77 84.87,76.99 11.67,53.32 -22.06,106.01 -75.38,117.68 -53.26,11.66 -105.95,-22.08 -117.68,-75.39 -3.89,-17.8 -2.68,-35.58 2.59,-51.77zm-335.27 -742.44c37.71,-8.23 75.11,3.65 101.08,28.44l227.55 -158.7c-4.11,-8.06 -7.26,-16.81 -9.32,-26.08 -2.4,-11 -3.02,-21.9 -2.13,-32.48l-303.9 -73.86c-15.18,33.64 -45.42,59.89 -84.21,68.35 -55.66,12.19 -110.76,-16.25 -134.42,-65.42l-124.56 38.48c4.03,24.94 0,49.54 -10.16,70.93l282.7 182.82c14.93,-15.83 34.56,-27.46 57.37,-32.48zm126.02 64.07c2.9,6.62 5.22,13.73 6.87,21.11 13.15,60.17 -24.94,119.67 -85.18,132.87 -1.37,0.29 -2.74,0.57 -4.11,0.81l-13.69 211.42c40.4,2.4 76.19,29.55 88.45,69.37l171.32 -13.16c3.54,-23.45 15.44,-44.84 33.18,-60.17l-49.83 -74.07c-4.42,1.66 -8.97,2.97 -13.74,4.06 -53.26,11.67 -105.93,-22.07 -117.67,-75.39 -11.67,-53.31 22.1,-106.01 75.42,-117.66 53.29,-11.66 105.98,22.07 117.65,75.39 7.38,33.45 -3.26,66.69 -25.33,89.7l52.17 77.51c1.53,-0.46 3.15,-0.87 4.74,-1.21 14.13,-3.08 28.21,-2.97 41.53,-0.16l57.09 -169.89c-26.1,-12.88 -46.34,-37.01 -53.04,-67.62 -11.09,-50.58 18.77,-100.63 67.4,-115.57l-33.01 -125.22c-33.18,6.81 -66,-2.44 -90.27,-22.46l-229.95 160.34zm-125.96 154.04c-41.25,-9.05 -75.57,-41.25 -85.24,-85.18 -4.8,-22.09 -2.74,-44.03 4.75,-63.67l-285.16 -184.36c-15.45,14.87 -35.06,25.74 -57.54,30.67 -37.36,8.18 -74.48,-1.9 -101.99,-24.32l-106.98 102.92c3.71,7.54 6.58,15.66 8.48,24.23 12.57,57.56 -23.82,114.37 -81.34,126.99 -2.07,0.47 -4.12,0.81 -6.18,1.15l-18.27 122.82c33.59,11.91 60.42,40.38 68.6,77.74 8.35,38 -4.75,75.73 -31.24,100.56l40.56 82.21c0.47,-0.12 0.97,-0.22 1.49,-0.34 40.73,-8.93 81.07,14.98 93.24,54.11l125.62 1.42c6.45,-32.59 31.53,-59.94 66.01,-67.67l5.14 -150.62c-46.49,-9.32 -85.44,-45.24 -96.26,-94.61 -14.58,-66.59 27.63,-132.41 94.2,-147.01 66.6,-14.58 132.44,27.58 147.01,94.23 14.6,66.57 -27.56,132.35 -94.19,146.95 -2.4,0.56 -4.81,0.97 -7.21,1.36l-5.14 151.2c24.35,7.27 44.96,25.09 55.13,49.35l191.63 -42.36c1.15,-38.46 24.81,-73.18 60.7,-88.18l14.18 -219.59zm121.73 324.85c-1.03,7.21 -2.87,14.25 -5.39,21.01l241.11 141.12c10.81,-11.4 24.49,-20.39 40.16,-25.63l-9.27 -79.47c-43.36,0.53 -82.78,-27.72 -95.58,-70.18l-171.03 13.15z"/>
   </g>
   <path class="fil2" d="M4976.36 8533.52c-177.73,-393.89 -576.42,-653.28 -1008.74,-653.28 -437.12,0 -831.01,259.39 -1013.54,653.28l-1066.39 2344.92c-72.05,155.31 -4.8,339.45 148.91,406.7 153.71,72.85 336.25,4.8 403.5,-149.71l1071.18 -2352.13c81.66,-177.72 259.4,-288.21 456.34,-288.21 192.14,0 374.67,110.49 456.33,288.21l1066.39 2352.13c52.84,111.28 163.32,179.33 278.6,179.33 43.23,0 86.46,-9.61 124.89,-29.62 153.72,-67.25 220.96,-251.39 153.72,-406.7l-1071.19 -2344.92zm-1008.74 1124.02c-302.62,0 -547.6,244.99 -547.6,547.61 0,302.62 244.98,547.6 547.6,547.6 302.62,0 547.6,-244.98 547.6,-547.6 0,-302.62 -244.98,-547.61 -547.6,-547.61zm2891.72 -1777.3c-168.13,0 -302.63,140.11 -302.63,308.23l0 2818.06c0,172.93 134.5,308.23 302.63,308.23 168.12,0 307.42,-135.3 307.42,-308.23l0 -2818.06c0,-168.12 -139.3,-308.23 -307.42,-308.23zm8281.27 0l-2997.4 0c-168.12,0 -302.62,139.31 -302.62,307.43 0,168.12 134.5,302.62 302.62,302.62l2997.4 0c168.12,0 307.43,-134.5 307.43,-302.62 0,-168.12 -139.31,-307.43 -307.43,-307.43zm0 2824.47l-2997.4 0c-168.12,0 -302.62,134.5 -302.62,302.63 0,172.92 134.5,307.42 302.62,307.42l2997.4 0c168.12,0 307.43,-134.5 307.43,-307.42 0,-168.13 -139.31,-302.63 -307.43,-302.63zm0 -1412.24l-2997.4 0c-168.12,0 -302.62,134.51 -302.62,302.63 0,168.12 134.5,307.43 302.62,307.43l2997.4 0c168.12,0 307.43,-139.31 307.43,-307.43 0,-168.12 -139.31,-302.63 -307.43,-302.63zm4284.74 -1412.23c-172.92,0 -307.42,140.11 -307.42,308.23l0 2111.15 -2483.42 -2336.92c-86.46,-87.26 -216.16,-106.48 -326.64,-58.44 -115.29,48.83 -187.34,159.32 -187.34,279.4l0 2822.87c0,172.93 139.3,308.23 307.43,308.23 168.12,0 302.62,-135.3 302.62,-308.23l0 -2114.35 2483.42 2340.12c57.64,53.64 134.5,82.46 211.35,82.46 38.44,0 81.67,-9.61 120.09,-24.02 110.48,-48.83 182.54,-159.31 182.54,-284.21l0 -2818.06c0,-168.12 -134.5,-308.23 -302.63,-308.23zm2747.62 610.05l240.18 0c403.49,0 730.13,115.29 951.09,327.44 120.09,120.08 317.04,115.28 432.32,-4.81 115.28,-120.89 115.28,-313.02 -4.8,-433.11 -336.25,-326.64 -811.8,-499.57 -1378.61,-499.57l-240.18 0c-566.82,0 -1042.36,172.93 -1378.61,499.57 -158.52,158.51 -283.41,345.85 -365.07,558 -81.66,202.55 -124.89,428.32 -124.89,659.69 0,236.17 43.23,457.14 124.89,664.49 81.66,212.15 206.55,399.49 365.07,553.2 336.25,326.64 811.79,499.57 1378.61,499.57l240.18 0c562.01,0 1032.75,-168.12 1369,-489.96 124.89,-120.09 124.89,-312.23 9.61,-433.12 -115.29,-124.89 -307.43,-124.89 -432.32,-9.6 -220.96,212.15 -547.6,322.63 -946.29,322.63l-240.18 0c-773.37,0 -1258.52,-423.51 -1258.52,-1107.21 0,-678.9 485.15,-1107.21 1258.52,-1107.21zm5485.62 -576.42c-148.9,-76.86 -331.44,-14.41 -408.29,135.3l-432.32 851.02c-153.71,302.62 -456.34,490.76 -792.58,490.76 -336.25,0 -643.67,-188.14 -797.39,-490.76l-427.51 -851.02c-76.86,-149.71 -264.19,-212.16 -413.11,-135.3 -148.9,77.65 -211.35,260.19 -134.49,413.9l432.31 851.02c124.9,245.78 317.04,452.33 552.41,601.25 148.91,91.26 312.23,154.51 480.35,188.13l0 1038.36c0,172.93 139.3,308.23 307.43,308.23 168.12,0 302.62,-135.3 302.62,-308.23l0 -1038.36c172.92,-33.62 331.44,-96.87 480.35,-188.13 240.18,-148.92 427.52,-355.47 557.21,-601.25l427.51 -851.02c76.86,-153.71 19.22,-336.25 -134.5,-413.9z"/>
  </g>
  <path class="fil2" d="M8949.74 12127.77l555.48 0 0 94.61 -458.17 0 0 304.09 454.12 0 0 94.61 -454.12 0 0 382.48 454.12 0 0 94.61 -551.43 0 0 -970.4zm2919.99 179.08l-76.59 58.79c-42.12,-54.96 -92.81,-96.63 -152.05,-125.02 -59.01,-28.38 -123.89,-42.57 -194.84,-42.57 -77.27,0 -148.9,18.7 -214.9,55.86 -66,37.17 -116.9,87.18 -153.17,149.8 -36.27,62.62 -54.51,133.35 -54.51,211.51 0,118.49 40.54,217.37 121.64,296.44 81.09,79.29 183.35,118.93 307.02,118.93 135.83,0 249.36,-53.16 340.81,-159.48l76.59 58.12c-48.43,61.49 -108.8,109.25 -181.11,142.81 -72.31,33.56 -153.17,50.46 -242.37,50.46 -169.84,0 -303.87,-56.54 -401.86,-169.62 -82.22,-95.28 -123.44,-210.61 -123.44,-345.54 0,-141.91 49.78,-261.52 149.35,-358.38 99.78,-97.09 224.58,-145.52 374.6,-145.52 90.55,0 172.32,17.8 245.3,53.39 72.98,35.81 132.9,85.82 179.53,150.02zm1487.12 -179.08l97.31 0 0 875.79 374.38 0 0 94.61 -471.69 0 0 -970.4zm2379.37 -24.33c146.86,0 269.85,49.11 368.74,147.1 98.89,97.98 148.44,218.72 148.44,361.98 0,142.14 -49.33,262.65 -147.99,361.53 -98.89,98.89 -219.17,148.45 -361.31,148.45 -143.71,0 -265.12,-49.33 -364.01,-147.77 -98.89,-98.44 -148.44,-217.6 -148.44,-357.48 0,-93.25 22.52,-179.53 67.57,-259.27 45.05,-79.51 106.55,-141.91 184.49,-186.96 77.71,-45.05 161.95,-67.58 252.51,-67.58zm4.28 94.61c-71.63,0 -139.66,18.7 -204.08,56.09 -64.2,37.39 -114.43,87.62 -150.7,150.92 -36.04,63.52 -54.06,134.03 -54.06,211.97 0,115.1 39.87,212.41 119.83,291.7 79.97,79.52 176.38,119.16 289.01,119.16 75.46,0 145.06,-18.25 209.03,-54.74 64.2,-36.49 114.21,-86.49 150.02,-149.79 35.82,-63.3 53.84,-133.58 53.84,-211.07 0,-77.03 -18.02,-146.64 -53.84,-208.81 -35.81,-62.17 -86.49,-111.95 -151.59,-149.34 -65.1,-37.39 -134.26,-56.09 -207.46,-56.09zm2004.31 -70.28l97.31 0 0 586.11c0,69.38 1.35,112.86 4.05,129.98 4.73,38.29 16,70.28 33.57,95.96 17.57,25.67 44.6,47.3 81.09,64.64 36.49,17.35 73.21,26.13 110.37,26.13 31.99,0 62.85,-6.75 92.36,-20.49 29.28,-13.52 54.06,-32.44 73.88,-56.77 19.82,-24.1 34.24,-53.38 43.47,-87.62 6.54,-24.78 9.92,-75.24 9.92,-151.83l0 -586.11 97.31 0 0 585.66c0,86.73 -8.56,156.78 -25.46,210.17 -16.89,53.38 -50.91,100.01 -101.59,139.43 -50.91,39.65 -112.4,59.47 -184.71,59.47 -78.39,0 -145.51,-18.7 -201.37,-56.09 -56.09,-37.39 -93.49,-86.72 -112.41,-148.44 -11.94,-37.85 -17.79,-105.87 -17.79,-204.54l0 -585.66zm2173.48 970.4l0 -970.4 201.38 0c145.07,0 250.48,11.71 316.03,34.92 94.16,33.11 167.82,90.1 220.75,171.64 52.94,81.32 79.52,178.18 79.52,290.8 0,97.31 -20.95,182.69 -63.07,256.57 -41.9,73.88 -96.64,128.62 -163.54,163.76 -67.12,35.14 -161.28,52.71 -282.24,52.71l-308.83 0zm93.26 -91.9l111.95 0c133.8,0 226.38,-8.34 278.19,-25.01 72.76,-23.87 130.2,-66.45 171.87,-128.17 41.67,-61.94 62.4,-137.4 62.4,-226.6 0,-93.48 -22.53,-173.68 -67.81,-239.9 -45.05,-66.45 -108.12,-111.95 -188.76,-136.51 -60.59,-18.47 -160.38,-27.7 -299.36,-27.7l-68.48 0 0 783.89z"/>
 </g>
</svg>
